<svg xmlns="http://www.w3.org/2000/svg" width="1440" height="800" viewBox="0 0 1440 800" class="htr-chart" role="img" lang="zh-Hant-TW" xml:lang="zh-Hant-TW" aria-labelledby="response-coverage-title response-coverage-desc">
<title id="response-coverage-title">敘述順序與作答人數變化</title>
<desc id="response-coverage-desc">二十四項敘述的作答人數隨順序明顯下降，從第一題六十九人降到第二十四題二十三人。前、中、後八題平均作答人數分別為六十點五、三十八點八與二十九點三。</desc>
<style>

.htr-chart text{font-family:system-ui, -apple-system, BlinkMacSystemFont, 'Segoe UI', 'PingFang TC', 'Noto Sans TC', 'Microsoft JhengHei', sans-serif;fill:#161616;font-weight:400}
.htr-chart .title{font-family:'Iowan Old Style', 'Palatino Linotype', Palatino, Georgia, serif;font-size:44px;font-weight:400;letter-spacing:-.5px}
.htr-chart .subtitle{font-size:22px;fill:#60656A}
.htr-chart .section{font-size:26px;font-weight:500}
.htr-chart .body{font-size:22px}
.htr-chart .compact{font-size:19px}
.htr-chart .small{font-size:18px;fill:#60656A}
.htr-chart .tiny{font-size:16px;fill:#60656A}
.htr-chart .value{font-size:20px;font-weight:500}
.htr-chart .label{font-size:20px;font-weight:500}
.htr-chart .point-number{font-size:12px;font-weight:500;fill:#161616;pointer-events:none}
.htr-chart .grid{stroke:#D7D9D9;stroke-width:1}
.htr-chart .axis{stroke:#60656A;stroke-width:1.5}
.htr-chart .callout{font-weight:500}
</style>
<rect width="1440" height="800" fill="#FFFFFF"/>
<g class="chart-title">
<text x="72" y="72" class="title">越後面的題目，越需要保守解讀</text>
<text x="72" y="112" class="subtitle">作答人數從 69 人降至 23 人。</text>
</g>
<rect x="128" y="210" width="391.9565217391305" height="410" fill="#EAF2F2" fill-opacity="0.55"/>
<text x="323.97826086956525" y="170" text-anchor="middle" class="section">前 8 題</text>
<text x="323.97826086956525" y="198" text-anchor="middle" class="small">平均 60.5 人</text>
<rect x="519.9565217391305" y="210" width="418.086956521739" height="410" fill="#EFEDF4" fill-opacity="0.55"/>
<text x="729" y="170" text-anchor="middle" class="section">中 8 題</text>
<text x="729" y="198" text-anchor="middle" class="small">平均 38.8 人</text>
<rect x="938.0434782608695" y="210" width="391.9565217391305" height="410" fill="#F4EEE5" fill-opacity="0.55"/>
<text x="1134.0217391304348" y="170" text-anchor="middle" class="section">後 8 題</text>
<text x="1134.0217391304348" y="198" text-anchor="middle" class="small">平均 29.3 人</text>
<line x1="128" x2="1330" y1="620" y2="620" class="grid"/>
<text x="110" y="627" text-anchor="end" class="small">20</text>
<line x1="128" x2="1330" y1="545.4545454545455" y2="545.4545454545455" class="grid"/>
<text x="110" y="552.4545454545455" text-anchor="end" class="small">30</text>
<line x1="128" x2="1330" y1="470.9090909090909" y2="470.9090909090909" class="grid"/>
<text x="110" y="477.9090909090909" text-anchor="end" class="small">40</text>
<line x1="128" x2="1330" y1="396.3636363636364" y2="396.3636363636364" class="grid"/>
<text x="110" y="403.3636363636364" text-anchor="end" class="small">50</text>
<line x1="128" x2="1330" y1="321.8181818181818" y2="321.8181818181818" class="grid"/>
<text x="110" y="328.8181818181818" text-anchor="end" class="small">60</text>
<line x1="128" x2="1330" y1="247.2727272727273" y2="247.2727272727273" class="grid"/>
<text x="110" y="254.2727272727273" text-anchor="end" class="small">70</text>
<text x="128" y="658" text-anchor="middle" class="small">1</text>
<text x="284.78260869565213" y="658" text-anchor="middle" class="small">4</text>
<text x="493.82608695652175" y="658" text-anchor="middle" class="small">8</text>
<text x="702.8695652173914" y="658" text-anchor="middle" class="small">12</text>
<text x="911.9130434782609" y="658" text-anchor="middle" class="small">16</text>
<text x="1120.9565217391305" y="658" text-anchor="middle" class="small">20</text>
<text x="1330" y="658" text-anchor="middle" class="small">24</text>
<line x1="128" x2="1330" y1="620" y2="620" class="axis"/>
<line x1="128" x2="128" y1="210" y2="620" class="axis"/>
<text x="720" y="710" text-anchor="middle" class="body">題目順序</text>
<text x="42" y="415" text-anchor="middle" class="body" transform="rotate(-90 42 415)">作答人數</text>
<polyline points="128,254.72727272727275 180.26086956521738,284.5454545454545 232.52173913043478,284.5454545454545 284.78260869565213,314.3636363636364 337.04347826086956,314.3636363636364 389.30434782608694,306.9090909090909 441.5652173913043,366.54545454545456 493.82608695652175,418.72727272727275 546.0869565217391,441.0909090909091 598.3478260869565,456 650.6086956521739,456 702.8695652173914,478.3636363636364 755.1304347826086,493.27272727272725 807.391304347826,493.27272727272725 859.6521739130435,515.6363636363636 911.9130434782609,508.1818181818182 964.1739130434783,523.0909090909091 1016.4347826086956,508.1818181818182 1068.695652173913,530.5454545454545 1120.9565217391305,545.4545454545455 1173.2173913043478,552.9090909090909 1225.4782608695652,575.2727272727273 1277.7391304347827,575.2727272727273 1330,597.6363636363636" fill="none" stroke="#0E747E" stroke-width="6" stroke-linejoin="round" stroke-linecap="round"/>
<circle cx="128" cy="254.72727272727275" r="7" fill="#FFFFFF" stroke="#0E747E" stroke-width="4"><title>第 1 題：69 人作答</title></circle>
<circle cx="180.26086956521738" cy="284.5454545454545" r="7" fill="#FFFFFF" stroke="#0E747E" stroke-width="4"><title>第 2 題：65 人作答</title></circle>
<circle cx="232.52173913043478" cy="284.5454545454545" r="7" fill="#FFFFFF" stroke="#0E747E" stroke-width="4"><title>第 3 題：65 人作答</title></circle>
<circle cx="284.78260869565213" cy="314.3636363636364" r="7" fill="#FFFFFF" stroke="#0E747E" stroke-width="4"><title>第 4 題：61 人作答</title></circle>
<circle cx="337.04347826086956" cy="314.3636363636364" r="7" fill="#FFFFFF" stroke="#0E747E" stroke-width="4"><title>第 5 題：61 人作答</title></circle>
<circle cx="389.30434782608694" cy="306.9090909090909" r="7" fill="#FFFFFF" stroke="#0E747E" stroke-width="4"><title>第 6 題：62 人作答</title></circle>
<circle cx="441.5652173913043" cy="366.54545454545456" r="7" fill="#FFFFFF" stroke="#0E747E" stroke-width="4"><title>第 7 題：54 人作答</title></circle>
<circle cx="493.82608695652175" cy="418.72727272727275" r="7" fill="#FFFFFF" stroke="#0E747E" stroke-width="4"><title>第 8 題：47 人作答</title></circle>
<circle cx="546.0869565217391" cy="441.0909090909091" r="7" fill="#FFFFFF" stroke="#0E747E" stroke-width="4"><title>第 9 題：44 人作答</title></circle>
<circle cx="598.3478260869565" cy="456" r="7" fill="#FFFFFF" stroke="#0E747E" stroke-width="4"><title>第 10 題：42 人作答</title></circle>
<circle cx="650.6086956521739" cy="456" r="7" fill="#FFFFFF" stroke="#0E747E" stroke-width="4"><title>第 11 題：42 人作答</title></circle>
<circle cx="702.8695652173914" cy="478.3636363636364" r="7" fill="#FFFFFF" stroke="#0E747E" stroke-width="4"><title>第 12 題：39 人作答</title></circle>
<circle cx="755.1304347826086" cy="493.27272727272725" r="7" fill="#FFFFFF" stroke="#0E747E" stroke-width="4"><title>第 13 題：37 人作答</title></circle>
<circle cx="807.391304347826" cy="493.27272727272725" r="7" fill="#FFFFFF" stroke="#0E747E" stroke-width="4"><title>第 14 題：37 人作答</title></circle>
<circle cx="859.6521739130435" cy="515.6363636363636" r="7" fill="#FFFFFF" stroke="#0E747E" stroke-width="4"><title>第 15 題：34 人作答</title></circle>
<circle cx="911.9130434782609" cy="508.1818181818182" r="7" fill="#FFFFFF" stroke="#0E747E" stroke-width="4"><title>第 16 題：35 人作答</title></circle>
<circle cx="964.1739130434783" cy="523.0909090909091" r="7" fill="#FFFFFF" stroke="#0E747E" stroke-width="4"><title>第 17 題：33 人作答</title></circle>
<circle cx="1016.4347826086956" cy="508.1818181818182" r="7" fill="#FFFFFF" stroke="#0E747E" stroke-width="4"><title>第 18 題：35 人作答</title></circle>
<circle cx="1068.695652173913" cy="530.5454545454545" r="7" fill="#FFFFFF" stroke="#0E747E" stroke-width="4"><title>第 19 題：32 人作答</title></circle>
<circle cx="1120.9565217391305" cy="545.4545454545455" r="7" fill="#FFFFFF" stroke="#0E747E" stroke-width="4"><title>第 20 題：30 人作答</title></circle>
<circle cx="1173.2173913043478" cy="552.9090909090909" r="7" fill="#FFFFFF" stroke="#0E747E" stroke-width="4"><title>第 21 題：29 人作答</title></circle>
<circle cx="1225.4782608695652" cy="575.2727272727273" r="7" fill="#FFFFFF" stroke="#0E747E" stroke-width="4"><title>第 22 題：26 人作答</title></circle>
<circle cx="1277.7391304347827" cy="575.2727272727273" r="7" fill="#FFFFFF" stroke="#0E747E" stroke-width="4"><title>第 23 題：26 人作答</title></circle>
<circle cx="1330" cy="597.6363636363636" r="7" fill="#FFFFFF" stroke="#0E747E" stroke-width="4"><title>第 24 題：23 人作答</title></circle>
<text x="142" y="234.72727272727275" class="label callout">69 人</text>
<text x="1316" y="549.6363636363636" text-anchor="end" class="label callout">23 人</text>
<rect x="72" y="744" width="1296" height="40" rx="0" fill="#FFFFFF"/>
<text x="720" y="772" text-anchor="middle" class="small">後段題目應優先再次確認；作答較少表示證據較薄，無法判斷重視或支持程度。</text>
</svg>